<?xml version="1.0" standalone="no"?>
<!DOCTYPE svg PUBLIC "-//W3C//DTD SVG 20010904//EN"
 "http://www.w3.org/TR/2001/REC-SVG-20010904/DTD/svg10.dtd">
<svg version="1.0" xmlns="http://www.w3.org/2000/svg"
 width="173.000000pt" height="323.000000pt" viewBox="0 0 173.000000 323.000000"
 preserveAspectRatio="xMidYMid meet">

<g transform="translate(0.000000,323.000000) scale(0.100000,-0.100000)"
fill="#000000" stroke="none">
<path d="M1282 3197 c-18 -18 -54 -74 -80 -123 -41 -78 -53 -92 -95 -115 -68
-37 -121 -92 -162 -171 -39 -74 -67 -186 -64 -254 3 -48 -23 -95 -99 -176 -63
-68 -139 -115 -238 -148 -109 -37 -169 -82 -250 -190 -85 -112 -209 -360 -230
-460 -23 -104 -21 -381 3 -565 24 -190 21 -265 -16 -346 -128 -282 -2 -531
314 -621 111 -31 328 -32 461 -1 178 42 333 117 294 143 -23 15 -154 12 -255
-6 -114 -20 -339 -14 -435 11 -183 49 -286 156 -265 274 12 71 9 68 76 59 33
-4 227 -9 432 -10 429 -3 452 -1 463 58 13 71 -28 107 -140 120 l-55 7 35 41
c19 22 40 60 48 84 l12 44 18 -48 c80 -215 176 -301 304 -273 60 12 87 38 79
76 -4 20 1 31 19 46 15 12 24 29 24 47 0 30 -16 39 -97 55 -59 12 -58 9 -58
359 0 311 1 323 23 389 13 37 50 108 83 157 75 115 94 153 108 218 16 74 14
259 -4 376 -18 121 -19 167 -2 188 6 9 39 34 71 56 68 47 111 105 121 162 10
58 0 75 -58 104 -32 15 -62 40 -77 63 -39 57 -60 72 -131 94 l-67 20 -7 112
c-11 176 -37 212 -103 144z"/>
</g>
</svg>
